<svg width="112" height="445" viewBox="0 0 112 445" fill="none" xmlns="http://www.w3.org/2000/svg">
<rect x="25.5" y="273.5" width="85" height="82" rx="9.5" fill="white" stroke="black" stroke-width="3"/>
<path d="M101 315.189C101 297.964 86.673 284 69 284C51.327 284 37 297.964 37 315.189C37 330.757 48.702 343.66 64 346V324.205H55.875V315.189H64V308.318C64 300.501 68.7775 296.183 76.0868 296.183C79.588 296.183 83.25 296.793 83.25 296.793V304.468H79.215C75.2395 304.468 74 306.872 74 309.339V315.189H82.875L81.4562 324.205H74V346C89.298 343.66 101 330.757 101 315.189Z" fill="#1877F2"/>
<rect x="25.5" y="361.5" width="85" height="82" rx="9.5" fill="white" stroke="black" stroke-width="3"/>
<path d="M96 384.564C93.9405 385.523 91.7559 386.153 89.519 386.432C91.849 384.964 93.638 382.638 94.4804 379.868C92.2655 381.25 89.8422 382.224 87.3152 382.747C85.2567 380.441 82.3243 379 79.0787 379C72.8469 379 67.7945 384.313 67.7945 390.865C67.7945 391.795 67.8944 392.7 68.0866 393.569C58.7087 393.074 50.3943 388.35 44.8287 381.172C43.8576 382.924 43.3012 384.963 43.3012 387.137C43.3012 391.253 45.2934 394.885 48.321 397.013C46.5291 396.954 44.7766 396.445 43.2099 395.529C43.2092 395.578 43.2092 395.628 43.2092 395.678C43.2092 401.427 47.0988 406.222 52.2606 407.312C50.599 407.788 48.856 407.857 47.1649 407.516C48.6007 412.23 52.7681 415.66 57.7056 415.756C53.8438 418.938 48.9782 420.835 43.6918 420.835C42.7808 420.835 41.8828 420.779 41 420.669C45.9936 424.036 51.9248 426 58.2971 426C79.0525 426 90.402 407.92 90.402 392.241C90.402 391.726 90.3913 391.215 90.3694 390.706C92.5785 389.027 94.4852 386.947 96 384.564Z" fill="#55ACEE"/>
<rect x="25.5" y="185.5" width="85" height="82" rx="9.5" fill="white" stroke="black" stroke-width="3"/>
<g clip-path="url(#clip0_4269_92)">
<path d="M34.4938 225.895C34.4922 231.66 36.0409 237.289 38.9858 242.25L34.2122 259.202L52.049 254.653C56.9825 257.265 62.51 258.634 68.1272 258.634H68.1419C86.6851 258.634 101.78 243.959 101.788 225.921C101.791 217.181 98.2944 208.961 91.9414 202.778C85.5894 196.595 77.1416 193.188 68.1406 193.184C49.5952 193.184 34.5017 207.858 34.4941 225.895" fill="url(#paint0_linear_4269_92)"/>
<path d="M33.2926 225.885C33.2907 231.857 34.8949 237.687 37.9448 242.826L33 260.385L51.4764 255.673C56.5673 258.373 62.2991 259.796 68.1315 259.798H68.1466C87.355 259.798 102.992 244.595 103 225.912C103.003 216.857 99.3808 208.343 92.8008 201.938C86.22 195.533 77.47 192.004 68.1466 192C48.9348 192 33.3002 207.201 33.2926 225.885ZM44.2957 241.941L43.6058 240.876C40.7057 236.391 39.175 231.208 39.1772 225.887C39.1835 210.357 52.1784 197.723 68.1575 197.723C75.8958 197.726 83.1681 200.66 88.638 205.983C94.1075 211.306 97.1173 218.383 97.1154 225.91C97.1082 241.439 84.1131 254.075 68.1466 254.075H68.1351C62.9362 254.072 57.8374 252.714 53.3908 250.148L52.3326 249.538L41.3683 252.334L44.2957 241.941V241.941Z" fill="url(#paint1_linear_4269_92)"/>
<path d="M59.4354 211.719C58.783 210.308 58.0964 210.28 57.476 210.255C56.9679 210.234 56.3871 210.236 55.8069 210.236C55.2261 210.236 54.2825 210.448 53.4849 211.295C52.6864 212.143 50.4366 214.192 50.4366 218.359C50.4366 222.526 53.5573 226.553 53.9924 227.119C54.428 227.683 60.017 236.508 68.8687 239.903C76.2253 242.724 77.7224 242.163 79.319 242.022C80.9158 241.881 84.4716 239.973 85.1971 237.996C85.923 236.018 85.923 234.323 85.7054 233.969C85.4877 233.616 84.9069 233.404 84.036 232.981C83.1649 232.557 78.8834 230.508 78.0852 230.225C77.2868 229.943 76.7063 229.802 76.1255 230.65C75.5447 231.497 73.877 233.404 73.3687 233.969C72.8609 234.535 72.3526 234.606 71.482 234.182C70.6105 233.757 67.8059 232.864 64.4784 229.978C61.8895 227.733 60.1417 224.961 59.6337 224.113C59.1256 223.266 59.5792 222.807 60.0159 222.385C60.4072 222.006 60.8871 221.396 61.323 220.902C61.7572 220.407 61.9021 220.054 62.1925 219.489C62.4831 218.924 62.3377 218.429 62.1203 218.006C61.9021 217.582 60.2098 213.393 59.4354 211.719Z" fill="white"/>
</g>
<defs>
<linearGradient id="paint0_linear_4269_92" x1="67.9999" y1="259.202" x2="67.9999" y2="193.184" gradientUnits="userSpaceOnUse">
<stop stop-color="#1FAF38"/>
<stop offset="1" stop-color="#60D669"/>
</linearGradient>
<linearGradient id="paint1_linear_4269_92" x1="68" y1="260.385" x2="68" y2="192" gradientUnits="userSpaceOnUse">
<stop stop-color="#F9F9F9"/>
<stop offset="1" stop-color="white"/>
</linearGradient>
<clipPath id="clip0_4269_92">
<rect width="70" height="68.6118" fill="white" transform="translate(33 192)"/>
</clipPath>
</defs>
</svg>
